<?xml version="1.0" encoding="UTF-8" standalone="no"?>
<svg width="988px" height="280px" viewBox="0 0 988 280" version="1.1" xmlns="http://www.w3.org/2000/svg" xmlns:xlink="http://www.w3.org/1999/xlink">
    <defs></defs>
    <g id="Page-1" stroke="none" stroke-width="1" fill="none" fill-rule="evenodd">
        <g id="Sandwich-Centered">
            <path d="M773.2,213.4 C773.2,250 743.6,279.6 707,279.6 C670.4,279.6 640.8,250 640.8,213.4 C640.8,176.8 670.4,147.2 707,147.2 C743.5,147.2 773.2,176.8 773.2,213.4 L773.2,213.4 Z M707,192.9 C695.7,192.9 686.5,202.1 686.5,213.4 C686.5,224.7 695.7,233.9 707,233.9 C718.3,233.9 727.5,224.7 727.5,213.4 C727.4,202.1 718.3,192.9 707,192.9 L707,192.9 Z" id="Shape" fill="#23B6E0"></path>
            <polygon id="Shape" fill="#EF4034" points="265.7 276.1 214.2 151.6 263.7 151.6 284.5 207.4 305.2 151.6 355.7 151.6 304.3 276.1"></polygon>
            <rect id="Rectangle-path" fill="#F58431" x="358.7" y="151.6" width="45.7" height="124.5"></rect>
            <polygon id="Shape" fill="#45BEAA" points="636.8 187.3 636.8 152.1 584.1 152.1 567.3 152.1 538.5 152.1 538.5 275.6 567.3 275.6 584.1 275.6 638.3 275.6 638.3 234.9 584.1 234.9 584.1 226.3 619.8 226.3 619.8 199 584.1 199 584.1 187.3"></polygon>
            <path d="M473.7,151.6 C501.7,151.6 532.2,173.3 532.2,213.8 C532.2,254.3 498.1,276 478.2,276 L415.2,276 L415.2,151.6 C415.2,151.6 445.7,151.6 473.7,151.6 L473.7,151.6 Z M479.7,196.9 C473.4,191.5 460.7,192.8 460.7,192.8 L460.7,230.8 C460.7,230.8 474.2,232.2 480.4,226.5 C483.5,223.7 485.4,218.2 485.4,211.8 C485.5,205.2 483,199.7 479.7,196.9 L479.7,196.9 Z" id="Shape" fill="#E3C821"></path>
            <g id="Group" fill="#16365B">
                <polygon id="Shape" points="627.8 4.5 613.9 42.3 600.5 4.5 554.5 4.5 563.1 29.2 558.4 44.3 543.9 4.5 496.9 4.5 541.1 129 574.3 129 586.1 95.4 597.7 129 630.9 129 675.1 4.5"></polygon>
                <rect id="Rectangle-path" x="678.2" y="4.5" width="45.7" height="124.5"></rect>
                <polygon id="Shape" points="941.2 4.5 941.2 45.6 910.9 45.6 910.9 4.5 864.7 4.5 864.7 129 910.9 129 910.9 87.8 941.2 87.8 941.2 129 987.3 129 987.3 4.5"></polygon>
                <path d="M202.4,129 L249.4,129 L198,4.5 L159.3,4.5 L107.9,129 L154.4,129 L161.3,109.7 L195.3,109.7 L202.4,129 L202.4,129 Z M170.3,84.7 L178.2,62.7 L186.2,84.7 L170.3,84.7 L170.3,84.7 Z" id="Shape"></path>
                <path d="M451.4,4.5 C479.4,4.5 509.9,26.2 509.9,66.7 C509.9,107.2 475.8,129 455.9,129 L392.9,129 L392.9,4.5 L451.4,4.5 L451.4,4.5 Z M457.4,49.8 C451.1,44.4 438.4,45.7 438.4,45.7 L438.4,83.7 C438.4,83.7 451.9,85.1 458.2,79.4 C461.3,76.6 463.2,71.1 463.2,64.7 C463.1,58.1 460.6,52.6 457.4,49.8 L457.4,49.8 Z" id="Shape"></path>
                <polygon id="Shape" points="336.8 4.5 338 63.3 306.3 4.5 295 4.5 287.3 4.5 249.3 4.5 249.3 129 295 129 295 73.1 329.5 129 339.3 129 359.6 129 382.5 129 382.5 4.5"></polygon>
                <path d="M107.1,20 C98.5,11.7 87.2,0.4 59.5,0.2 C34.9,0.1 16.7,11.6 10.3,27 C5.6,38.2 6,52.6 14.2,64.4 C19,71.3 31.4,77.4 42.5,80.1 C62.1,84.8 63.7,88.2 62.4,92.8 C60.9,98.2 50.4,97.5 40.5,94.3 C30,90.9 16.7,83.8 16.7,83.8 L0.1,111.6 C0.1,111.6 21.8,130.1 54.9,133.1 C87,135.9 106.6,121.2 112,107.7 C116,97.6 118.7,80.4 109.2,67.8 C106.1,63.6 99.2,55.2 83.8,50.9 C71.5,47.5 55.8,45.8 56.3,39.4 C56.9,31.9 67.2,33.2 72.4,34.5 C77.6,35.9 88.3,42.9 88.3,42.9 L107.1,20 L107.1,20 Z" id="Shape"></path>
                <path d="M817.9,75.1 C816.3,81.6 808.1,87.6 800.6,87.9 C789.9,88.3 778.9,78.5 778.5,67.2 C778,54.6 786.6,44.9 798.5,44 C808.3,43.3 816.7,51.4 817.8,57.2 L858.1,52.2 C852.7,20.1 826.3,-0.8 794.6,0.4 C760,1.6 730.8,26.2 730.8,68.8 C730.8,109.9 762.7,132.7 797.3,132.7 C829.3,132.7 855.4,109.9 858.5,77.6 L817.9,75.1 L817.9,75.1 Z" id="Shape"></path>
            </g>
        </g>
    </g>
</svg>
